# xmcd
#
# Track frame offsets:
#	150
#	15707
#	31802
#	48885
#	63099
#	78469
#	94539
#	111171
#	127934
#	144012
#	175307
#	187257
#	204132
#	222792
#
# Disc length: 3203 seconds
#
# Revision: 0
# Processed by: cddbd v1.5.2PL0 Copyright (c) Steve Scherf et al.
# Submitted via: audiograbber 1.83.01
#
DISCID=ae0c810e
DTITLE=Men At Work - Business as Usual (Remastered) (Bonus Tracks)
DYEAR=1982
DGENRE=Rock
TTITLE0=Who Can It Be Now?
TTITLE1=I Can See It In Your Eyes
TTITLE2=Down Under
TTITLE3=Underground
TTITLE4=Helpless Automation
TTITLE5=People Just Love To Play With Words
TTITLE6=Be Good Johnny
TTITLE7=Touching The Untouchables
TTITLE8=Catch A Star
TTITLE9=Down By The Sea
TTITLE10=Crazy (Non LP B-Side)
TTITLE11=Underground (Live)
TTITLE12=Who Can It Be Now? (Live)
TTITLE13=F-19 (Non LP B-Side)
EXTD=YEAR: 2003
EXTT0=
EXTT1=
EXTT2=
EXTT3=
EXTT4=
EXTT5=
EXTT6=
EXTT7=
EXTT8=
EXTT9=
EXTT10=
EXTT11=
EXTT12=
EXTT13=
PLAYORDER=
